<svg width="1150" height="1150" viewBox="0 0 1150 1150" fill="none" xmlns="http://www.w3.org/2000/svg">
<rect width="1150" height="1150" rx="200" fill="#003ECB"/>
<path opacity="0.07" d="M941.5 634.5C928.8 627.1 919.6 626.9 913.9 633.9C908.2 640.8 905.4 652.5 905.4 669V757.9C905.4 774.8 903.8 788.8 900.7 799.9C897.6 811.4 892.3 819.6 885 824.4C877.9 829.3 868.3 830.6 856.1 828.3C844.2 826.1 829.3 819.9 811.5 809.6L803 804.7V734.7L813.6 740.8C826.3 748.2 834.8 749.1 839.1 743.7C843.6 738.5 845.9 727.6 845.9 711.1V632.8C845.9 612.4 847.9 596.3 851.9 584.4C855.9 572.5 863.8 565 875.7 561.6C863.8 544.5 855.9 527.8 851.9 511.4C847.9 495 846 476.6 846 456.2V377.9C846 361.4 843.7 348 839.2 337.5C835 327.2 826.5 318.4 813.7 311L803.1 304.9V234.9L811.6 239.8C829.4 250.1 844.3 261 856.2 272.6C868.4 284.3 878 296.8 885.1 309.9C892.5 323.2 897.7 337.4 900.8 352.5C903.9 367.2 905.5 383.1 905.5 399.9V488.8C905.5 505.3 908.3 520.3 914 533.7C919.7 547.2 928.9 557.6 941.6 564.9L941.5 634.5Z" fill="url(#paint0_linear)"/>
<path opacity="0.07" d="M619 377C631.7 384.4 640.9 384.6 646.6 377.6C652.3 370.7 655.1 359 655.1 342.5V253.6C655.1 236.7 656.7 222.7 659.8 211.6C662.9 200.1 668 191.8 675.1 186.9C682.5 182.1 692.1 180.8 704 183C716.2 185.3 731.2 191.6 749 201.9L757.5 206.8V276.8L746.9 270.7C734.2 263.3 725.5 262.3 721 267.5C716.8 272.9 714.6 283.8 714.6 300.3V378.6C714.6 399 712.6 415.1 708.6 427C704.6 438.8 696.7 446.4 684.8 449.8C696.7 466.9 704.6 483.6 708.6 500C712.6 516.4 714.5 534.8 714.5 555.2V633.5C714.5 650 716.6 663.4 720.9 673.7C725.4 684.2 734.1 693.1 746.8 700.4L757.4 706.5V776.5L748.9 771.6C731.1 761.3 716.1 750.3 703.9 738.6C692 727 682.4 714.6 675 701.3C667.9 688.2 662.8 674.1 659.7 658.9C656.6 644.2 655 628.3 655 611.5V522.6C655 506.1 652.2 491.1 646.5 477.7C640.8 464.2 631.6 453.8 618.9 446.5L619 377Z" fill="url(#paint1_linear)"/>
<path opacity="0.4" d="M901.5 664.5C888.8 657.1 879.6 656.9 873.9 663.9C868.2 670.8 865.4 682.5 865.4 699V787.9C865.4 804.8 863.8 818.8 860.7 829.9C857.6 841.4 852.3 849.6 845 854.4C837.9 859.3 828.3 860.6 816.1 858.3C804.2 856.1 789.3 849.9 771.5 839.6L763 834.7V764.7L773.6 770.8C786.3 778.2 794.8 779.1 799.1 773.7C803.6 768.5 805.9 757.6 805.9 741.1V662.8C805.9 642.4 807.9 626.3 811.9 614.4C815.9 602.5 823.8 595 835.7 591.6C823.8 574.5 815.9 557.8 811.9 541.4C807.9 525 806 506.6 806 486.2V407.9C806 391.4 803.7 378 799.2 367.5C795 357.2 786.5 348.4 773.7 341L763.1 334.9V264.9L771.6 269.8C789.4 280.1 804.3 291 816.2 302.6C828.4 314.3 838 326.8 845.1 339.9C852.5 353.2 857.7 367.4 860.8 382.5C863.9 397.2 865.5 413.1 865.5 429.9V518.8C865.5 535.3 868.3 550.3 874 563.7C879.7 577.2 888.9 587.6 901.6 594.9L901.5 664.5Z" fill="url(#paint2_linear)"/>
<path opacity="0.4" d="M579 407C591.7 414.4 600.9 414.6 606.6 407.6C612.3 400.7 615.1 389 615.1 372.5V283.6C615.1 266.7 616.7 252.7 619.8 241.6C622.9 230.1 628 221.8 635.1 216.9C642.5 212.1 652.1 210.8 664 213C676.2 215.3 691.2 221.6 709 231.9L717.5 236.8V306.8L706.9 300.7C694.2 293.3 685.5 292.3 681 297.5C676.8 302.9 674.6 313.8 674.6 330.3V408.6C674.6 429 672.6 445.1 668.6 457C664.6 468.8 656.7 476.4 644.8 479.8C656.7 496.9 664.6 513.6 668.6 530C672.6 546.4 674.5 564.8 674.5 585.2V663.5C674.5 680 676.6 693.4 680.9 703.7C685.4 714.2 694.1 723.1 706.8 730.4L717.4 736.5V806.5L708.9 801.6C691.1 791.3 676.1 780.3 663.9 768.6C652 757 642.4 744.6 635 731.3C627.9 718.2 622.8 704.1 619.7 688.9C616.6 674.2 615 658.3 615 641.5V552.6C615 536.1 612.2 521.1 606.5 507.7C600.8 494.2 591.6 483.8 578.9 476.5L579 407Z" fill="url(#paint3_linear)"/>
<path opacity="0.15" d="M357 194.2L527.9 292.9L527.8 702.2L356.9 603.5L357 194.2Z" fill="url(#paint4_linear)"/>
<path d="M324.9 257.1L460.8 335.6V373.3L324.9 294.8V257.1Z" fill="#F2C94C"/>
<path opacity="0.15" d="M378.1 420.7L508.7 496.1V554.7L378.1 479.3V420.7Z" fill="white"/>
<path opacity="0.15" d="M378 349.8L508.8 425.3V438.9L378 363.5V349.8Z" fill="white"/>
<path opacity="0.15" d="M378 376.4L491.1 441.7V455.3L378 390V376.4Z" fill="white"/>
<path opacity="0.2" d="M357 194.2L527.9 292.9V347.8L357 249.1V194.2Z" fill="url(#paint5_linear)"/>
<path opacity="0.2" d="M399.7 246.6C399.7 254.9 394.8 258.8 388.8 255.4C382.8 251.9 378 242.4 378 234.1C378 225.8 382.9 221.9 388.9 225.3C394.8 228.8 399.7 238.3 399.7 246.6Z" fill="white"/>
<path opacity="0.15" d="M567 573.7L737.9 672.4L737.8 1081.7L566.9 983L567 573.7Z" fill="url(#paint6_linear)"/>
<path d="M632.1 692.8L768 771.2V808.8L632 730.4L632.1 692.8Z" fill="#F2994A"/>
<path opacity="0.15" d="M588.1 731.7L718.8 807.2V865.7L588.1 790.2V731.7Z" fill="white"/>
<path opacity="0.15" d="M587.9 815.3L718.7 890.8V904.4L587.9 829V815.3Z" fill="white"/>
<path opacity="0.15" d="M587.9 839.9L701 905.2V918.8L587.9 853.5V839.9Z" fill="white"/>
<path opacity="0.2" d="M567 573.7L737.9 672.4V727.3L567 628.6V573.7Z" fill="url(#paint7_linear)"/>
<path opacity="0.2" d="M609.7 626.2C609.7 634.5 604.8 638.4 598.8 635C592.8 631.5 588 622 588 613.7C588 605.4 592.9 601.5 598.9 604.9C604.8 608.3 609.7 617.9 609.7 626.2Z" fill="white"/>
<path opacity="0.3" d="M537.4 630.4L239.9 458.7L240 613.8L511.3 770.4L537.6 809.3L537.4 630.4Z" fill="url(#paint8_linear)"/>
<path opacity="0.15" d="M460.9 624L395.7 586.4V600L460.9 637.6V624Z" fill="white"/>
<path opacity="0.15" d="M460.9 651.3L299.5 558.1V571.7L461 664.9L460.9 651.3Z" fill="white"/>
<path opacity="0.15" d="M461 678.6L266.1 566.1V579.7L461 692.2V678.6Z" fill="white"/>
<path d="M477 647.5C477 660.3 484.6 675 493.9 680.4C503.2 685.8 510.8 679.8 510.8 667C510.8 654.2 503.2 639.5 493.9 634.1C484.5 628.7 477 634.7 477 647.5Z" fill="#F2994A"/>
<path opacity="0.15" d="M269.3 349.8L229.9 327V313.7L269.3 336.5C272.5 338.4 277.2 342.1 281.2 347.9C285.5 354.1 288.6 361.9 288.6 370.4C288.6 379.8 286.2 385.1 281.7 386.7C277.4 388.1 272.4 385.7 269.3 383.9L253.1 374.5L253 374.4C251.6 373.6 249.4 372.8 247.7 373.3C246.3 373.7 244.6 375.2 244.6 380.4C244.6 385.6 246.2 388.8 247.6 390.7C249.3 393.1 251.5 394.8 252.9 395.5L253.1 395.6L302.7 424.2V437.5L253.4 409C250 407.2 245.1 403.5 240.9 397.6C236.3 391.1 233.1 382.9 233.1 373.7C233.1 364.6 236.3 359.9 240.8 358.6C245 357.4 249.9 359.2 253.3 361.2L269.4 370.5C271.7 371.8 273.5 372.4 274.6 372C275.5 371.7 277.1 370.4 277.1 363.7C277.1 359.3 275.7 356.5 274.3 354.5C272.7 352.3 270.6 350.5 269.3 349.8Z" fill="white"/>
<path d="M241.6 328.4C241.6 339.8 234.9 345.1 226.7 340.4C218.5 335.7 211.8 322.6 211.8 311.2C211.8 299.8 218.5 294.5 226.7 299.2C234.9 304 241.6 317.1 241.6 328.4Z" fill="#F2C94C"/>
<path d="M320.6 438.4C320.6 449.8 313.9 455.1 305.7 450.4C297.5 445.7 290.8 432.6 290.8 421.2C290.8 409.8 297.5 404.5 305.7 409.2C313.9 414 320.6 427.1 320.6 438.4Z" fill="#F2C94C"/>
<path opacity="0.2" d="M426.9 786.1C432.9 789.6 437.7 797.9 437.7 804.9V835.4L457.9 847C463.9 850.5 468.7 858.8 468.7 865.8C468.7 872.7 463.8 875.5 457.9 872.1L437.7 860.5V891C437.7 897.9 432.8 900.7 426.9 897.3C420.9 893.8 416.1 885.5 416.1 878.5V848L395.9 836.4C389.9 832.9 385.1 824.6 385.1 817.6C385.1 810.7 390 807.9 395.9 811.3L416.1 822.9V792.4C416.1 785.4 420.9 782.6 426.9 786.1Z" fill="url(#paint9_linear)"/>
<defs>
<linearGradient id="paint0_linear" x1="1004.41" y1="255.118" x2="757.783" y2="682.566" gradientUnits="userSpaceOnUse">
<stop stop-color="white"/>
<stop offset="1" stop-color="white" stop-opacity="0"/>
</linearGradient>
<linearGradient id="paint1_linear" x1="885.826" y1="184.847" x2="639.196" y2="612.295" gradientUnits="userSpaceOnUse">
<stop stop-color="white"/>
<stop offset="1" stop-color="white" stop-opacity="0"/>
</linearGradient>
<linearGradient id="paint2_linear" x1="964.414" y1="285.118" x2="717.783" y2="712.566" gradientUnits="userSpaceOnUse">
<stop stop-color="white"/>
<stop offset="1" stop-color="white" stop-opacity="0"/>
</linearGradient>
<linearGradient id="paint3_linear" x1="845.826" y1="214.847" x2="599.195" y2="642.294" gradientUnits="userSpaceOnUse">
<stop stop-color="white"/>
<stop offset="1" stop-color="white" stop-opacity="0"/>
</linearGradient>
<linearGradient id="paint4_linear" x1="531.001" y1="294.653" x2="367.732" y2="577.517" gradientUnits="userSpaceOnUse">
<stop stop-color="white"/>
<stop offset="1" stop-color="white" stop-opacity="0"/>
</linearGradient>
<linearGradient id="paint5_linear" x1="415.636" y1="195.036" x2="467.65" y2="342.513" gradientUnits="userSpaceOnUse">
<stop stop-color="white"/>
<stop offset="1" stop-color="white" stop-opacity="0"/>
</linearGradient>
<linearGradient id="paint6_linear" x1="740.993" y1="674.178" x2="577.725" y2="957.041" gradientUnits="userSpaceOnUse">
<stop stop-color="white"/>
<stop offset="1" stop-color="white" stop-opacity="0"/>
</linearGradient>
<linearGradient id="paint7_linear" x1="625.629" y1="574.561" x2="677.642" y2="722.038" gradientUnits="userSpaceOnUse">
<stop stop-color="white"/>
<stop offset="1" stop-color="white" stop-opacity="0"/>
</linearGradient>
<linearGradient id="paint8_linear" x1="472.532" y1="568.332" x2="318.881" y2="688.636" gradientUnits="userSpaceOnUse">
<stop stop-color="white"/>
<stop offset="1" stop-color="white" stop-opacity="0"/>
</linearGradient>
<linearGradient id="paint9_linear" x1="447.759" y1="825.063" x2="395.387" y2="866.368" gradientUnits="userSpaceOnUse">
<stop stop-color="white"/>
<stop offset="1" stop-color="white" stop-opacity="0"/>
</linearGradient>
</defs>
</svg>
