<svg xmlns="http://www.w3.org/2000/svg" viewBox="0 0 208.22 212.37"><defs><style>.cls-1{fill:#5e54ac;}.cls-2{fill:#f4f2f4;}.cls-3{fill:#dad9e8;}.cls-4{fill:#2166ed;}.cls-5,.cls-6{fill:#f9f6f9;}.cls-6{opacity:0.6;}.cls-7{fill:#ffbd07;}.cls-8{fill:#ff2363;}.cls-9{fill:#60d3be;}</style></defs><g id="Layer_2" data-name="Layer 2"><g id="Layer_1-2" data-name="Layer 1"><path class="cls-1" d="M49.7,79.22a3.49,3.49,0,0,1-3.49-3.49V30.57a3.49,3.49,0,1,1,7,0V75.73A3.49,3.49,0,0,1,49.7,79.22Z"/><path class="cls-2" d="M179.43,212.37H4.22c5-5.65,11.22-19.94,18.37-23.14a57.43,57.43,0,0,1,23.54-5h91.39a57.38,57.38,0,0,1,23.53,5C168.2,192.43,174.48,206.72,179.43,212.37Z"/><path class="cls-3" d="M161.05,189.23c-7.11,3.18-15.09,23.14-23.53,23.14H46.12c-8.43,0-16.42-20-23.53-23.14a57.43,57.43,0,0,1,23.54-5h91.39A57.38,57.38,0,0,1,161.05,189.23Z"/><path class="cls-2" d="M137.75,188.89H45.89A45.89,45.89,0,0,1,0,143V108.76A45.89,45.89,0,0,1,45.89,62.87h91.86a45.88,45.88,0,0,1,45.89,45.89V143A45.88,45.88,0,0,1,137.75,188.89Z"/><path class="cls-4" d="M128.79,162H54.85a27.12,27.12,0,0,1-27.12-27.12V110.05A27.12,27.12,0,0,1,54.85,82.94h73.94a27.12,27.12,0,0,1,27.12,27.11v24.82A27.12,27.12,0,0,1,128.79,162Z"/><circle class="cls-5" cx="66.7" cy="116.48" r="13.73"/><circle class="cls-5" cx="116.94" cy="116.48" r="13.73"/><path class="cls-6" d="M104.32,147.83h-25a3.49,3.49,0,0,1,0-7h25a3.49,3.49,0,0,1,0,7Z"/><circle class="cls-7" cx="49.7" cy="28.77" r="13.89"/><path class="cls-8" d="M206,35.37H175.2a2.21,2.21,0,0,1-2.2-2.2V2.2A2.2,2.2,0,0,1,175.2,0a33.18,33.18,0,0,1,33,33.17A2.2,2.2,0,0,1,206,35.37Z"/><path class="cls-7" d="M175,72.16,164.26,43.53V13.11a2.19,2.19,0,0,0-2.21-2.21,33.29,33.29,0,0,0-33.31,33,33.41,33.41,0,0,0,33.31,33.17c.75,0,1.46,0,2.21-.09a31.24,31.24,0,0,0,9.37-2A2.2,2.2,0,0,0,175,72.16Z"/><path class="cls-9" d="M185.68,76.77a2.17,2.17,0,0,1-2.06-1.42l-10.82-29a2.2,2.2,0,0,1,2.06-3h30.82a2.2,2.2,0,0,1,2.2,2.2,33.4,33.4,0,0,1-21.42,31.06A2.11,2.11,0,0,1,185.68,76.77Z"/></g></g></svg>