<svg width="1150" height="1150" viewBox="0 0 1150 1150" fill="none" xmlns="http://www.w3.org/2000/svg">
<rect width="1150" height="1150" rx="200" fill="#003ECB"/>
<path opacity="0.07" d="M516.2 127.2L963.1 627.1L516.1 611.1C512.8 611 509.2 605.6 510 602L555 402.2L780.2 515L552.3 366.1L510.1 129.4C509.3 124.8 512.9 123.6 516.2 127.2Z" fill="url(#paint0_linear)"/>
<path opacity="0.4" d="M481.9 152.1L928.8 652L481.8 636C478.5 635.9 474.9 630.5 475.7 626.9L520.6 427.2L745.8 540L518.1 391L475.8 154.3C475 149.7 478.6 148.5 481.9 152.1Z" fill="url(#paint1_linear)"/>
<path opacity="0.3" d="M514.8 680.2L217.2 508.4L217.3 663.5L488.6 820.1L514.9 859L514.8 680.2Z" fill="url(#paint2_linear)"/>
<path d="M185.5 568.9V526.8L297.8 591.6V633.7L185.5 568.9Z" fill="#F2994A"/>
<path opacity="0.15" d="M438.3 673.8L373.1 636.2V649.8L438.3 687.4V673.8Z" fill="white"/>
<path opacity="0.15" d="M438.3 701L312.6 628.5V642.1L438.3 714.6V701Z" fill="white"/>
<path opacity="0.15" d="M438.4 728.3L286.1 640.4V654L438.4 741.9V728.3Z" fill="white"/>
<path d="M454.4 697.2C454.4 710 462 724.7 471.3 730.1C480.6 735.5 488.2 729.5 488.2 716.7C488.2 703.9 480.6 689.2 471.3 683.8C461.9 678.4 454.4 684.4 454.4 697.2Z" fill="#F2994A"/>
<path opacity="0.3" d="M540.5 552.1L838.1 723.9L838.2 879L566.8 722.3L540.6 730.9L540.5 552.1Z" fill="url(#paint3_linear)"/>
<path d="M751.5 751.2V709.1L863.8 773.9V816L751.5 751.2Z" fill="#F2C94C"/>
<path opacity="0.15" d="M617 634L682.2 671.6V685.2L617 647.6V634Z" fill="white"/>
<path opacity="0.15" d="M617 661.3L734.7 729.2V742.8L617 674.9V661.3Z" fill="white"/>
<path opacity="0.15" d="M617.1 688.5L769.4 776.4V790L617.1 702.1V688.5Z" fill="white"/>
<path d="M601 638.9C601 651.7 593.4 657.7 584.1 652.3C574.8 646.9 567.2 632.2 567.2 619.4C567.2 606.6 574.8 600.6 584.1 606C593.4 611.4 601 626.2 601 638.9Z" fill="#F2C94C"/>
<path opacity="0.2" d="M878.8 931.3L701.1 828.7V921.3L878.8 1023.9V931.3Z" fill="url(#paint4_linear)"/>
<path opacity="0.15" d="M746.6 877.3L800 908.2V919.3L746.6 888.4V877.3Z" fill="white"/>
<path opacity="0.15" d="M746.6 899.6L860.4 965.3V976.6L746.6 910.9V899.6Z" fill="white"/>
<path d="M737.2 880.6C737.2 888.2 732.7 891.8 727.1 888.6C721.5 885.4 717 876.6 717 869C717 861.4 721.5 857.8 727.1 861C732.7 864.2 737.2 873 737.2 880.6Z" fill="#F2C94C"/>
<path opacity="0.2" d="M386.8 789.3L209.1 686.7V779.3L386.8 881.9V789.3Z" fill="url(#paint5_linear)"/>
<path opacity="0.15" d="M254.6 735.3L308 766.2V777.3L254.6 746.4V735.3Z" fill="white"/>
<path opacity="0.15" d="M254.6 757.6L368.4 823.3V834.6L254.6 768.9V757.6Z" fill="white"/>
<path d="M245.2 738.6C245.2 746.2 240.7 749.8 235.1 746.6C229.5 743.4 225 734.6 225 727C225 719.4 229.5 715.8 235.1 719C240.7 722.2 245.2 731 245.2 738.6Z" fill="#F2994A"/>
<path opacity="0.2" d="M412.3 494.8L369.5 470.1V455.7L412.3 480.4C415.8 482.4 420.9 486.5 425.2 492.8C429.9 499.5 433.2 508 433.2 517.2C433.2 527.4 430.6 533.2 425.7 534.8C421.1 536.3 415.6 533.7 412.3 531.8L394.7 521.6L394.6 521.5C393.1 520.6 390.7 519.7 388.8 520.3C387.2 520.8 385.5 522.3 385.5 528C385.5 533.7 387.3 537.1 388.7 539.2C390.5 541.8 392.9 543.6 394.4 544.4L394.6 544.5L448.4 575.6V590L394.9 559.1C391.2 557.2 385.9 553.1 381.3 546.7C376.3 539.6 372.9 530.7 372.9 520.8C372.9 510.9 376.3 505.9 381.2 504.5C385.8 503.2 391.1 505.1 394.8 507.3L412.2 517.3C414.7 518.8 416.6 519.4 417.9 519C418.9 518.7 420.7 517.3 420.7 510C420.7 505.2 419.2 502.1 417.7 500.1C416 497.5 413.7 495.6 412.3 494.8Z" fill="white"/>
<path d="M377.3 467C377.3 479.9 369.7 486 360.4 480.7C351.1 475.3 343.5 460.5 343.5 447.5C343.5 434.6 351.1 428.5 360.4 433.8C369.7 439.2 377.3 454.1 377.3 467Z" fill="#F2994A"/>
<path d="M470.3 595C470.3 607.9 462.7 614 453.4 608.7C444.1 603.3 436.5 588.5 436.5 575.5C436.5 562.6 444.1 556.5 453.4 561.8C462.7 567.2 470.3 582.1 470.3 595Z" fill="#F2C94C"/>
<path opacity="0.2" d="M589.1 801.7V886C589.1 886.9 590 887.9 590.6 887.6L610.3 875.5L630.4 911.1C631.5 913 633.4 913.2 633.4 911.4V827.4L589.1 801.7Z" fill="url(#paint6_linear)"/>
<defs>
<linearGradient id="paint0_linear" x1="795.738" y1="298.765" x2="592.093" y2="567.696" gradientUnits="userSpaceOnUse">
<stop stop-color="white"/>
<stop offset="1" stop-color="white" stop-opacity="0"/>
</linearGradient>
<linearGradient id="paint1_linear" x1="761.483" y1="323.675" x2="557.838" y2="592.606" gradientUnits="userSpaceOnUse">
<stop stop-color="white"/>
<stop offset="1" stop-color="white" stop-opacity="0"/>
</linearGradient>
<linearGradient id="paint2_linear" x1="449.925" y1="618.046" x2="296.274" y2="738.35" gradientUnits="userSpaceOnUse">
<stop stop-color="white"/>
<stop offset="1" stop-color="white" stop-opacity="0"/>
</linearGradient>
<linearGradient id="paint3_linear" x1="668.339" y1="557.096" x2="706.81" y2="869.128" gradientUnits="userSpaceOnUse">
<stop stop-color="white"/>
<stop offset="1" stop-color="white" stop-opacity="0"/>
</linearGradient>
<linearGradient id="paint4_linear" x1="809.982" y1="891.584" x2="769.898" y2="961.03" gradientUnits="userSpaceOnUse">
<stop stop-color="white"/>
<stop offset="1" stop-color="white" stop-opacity="0"/>
</linearGradient>
<linearGradient id="paint5_linear" x1="317.982" y1="749.583" x2="277.898" y2="819.028" gradientUnits="userSpaceOnUse">
<stop stop-color="white"/>
<stop offset="1" stop-color="white" stop-opacity="0"/>
</linearGradient>
<linearGradient id="paint6_linear" x1="630.407" y1="844.791" x2="579.986" y2="876.723" gradientUnits="userSpaceOnUse">
<stop stop-color="white"/>
<stop offset="1" stop-color="white" stop-opacity="0"/>
</linearGradient>
</defs>
</svg>
